<svg width="48" height="49" viewBox="0 0 48 49" fill="none" xmlns="http://www.w3.org/2000/svg">
<path d="M14.6667 9.83337H10.6667C10.3131 9.83337 9.97395 9.97385 9.7239 10.2239C9.47385 10.4739 9.33337 10.8131 9.33337 11.1667V37.8334C9.33337 38.187 9.47385 38.5261 9.7239 38.7762C9.97395 39.0262 10.3131 39.1667 10.6667 39.1667H14.6667V9.83337Z" fill="#C4B5FD"/>
<path d="M17.3334 39.1667H30.6667V9.83337H17.3334V39.1667ZM24 33.8334C23.6464 33.8334 23.3073 33.6929 23.0572 33.4429C22.8072 33.1928 22.6667 32.8537 22.6667 32.5C22.6667 32.1464 22.8072 31.8073 23.0572 31.5572C23.3073 31.3072 23.6464 31.1667 24 31.1667C24.3537 31.1667 24.6928 31.3072 24.9429 31.5572C25.1929 31.8073 25.3334 32.1464 25.3334 32.5C25.3334 32.8537 25.1929 33.1928 24.9429 33.4429C24.6928 33.6929 24.3537 33.8334 24 33.8334ZM24 15.1667C24.3537 15.1667 24.6928 15.3072 24.9429 15.5572C25.1929 15.8073 25.3334 16.1464 25.3334 16.5C25.3334 16.8537 25.1929 17.1928 24.9429 17.4429C24.6928 17.6929 24.3537 17.8334 24 17.8334C23.6464 17.8334 23.3073 17.6929 23.0572 17.4429C22.8072 17.1928 22.6667 16.8537 22.6667 16.5C22.6667 16.1464 22.8072 15.8073 23.0572 15.5572C23.3073 15.3072 23.6464 15.1667 24 15.1667ZM24 23.1667C24.3537 23.1667 24.6928 23.3072 24.9429 23.5572C25.1929 23.8073 25.3334 24.1464 25.3334 24.5C25.3334 24.8537 25.1929 25.1928 24.9429 25.4429C24.6928 25.6929 24.3537 25.8334 24 25.8334C23.6464 25.8334 23.3073 25.6929 23.0572 25.4429C22.8072 25.1928 22.6667 24.8537 22.6667 24.5C22.6667 24.1464 22.8072 23.8073 23.0572 23.5572C23.3073 23.3072 23.6464 23.1667 24 23.1667Z" fill="#7C3AED"/>
<path d="M37.3334 9.83337H33.3334V39.1667H37.3334C37.687 39.1667 38.0261 39.0262 38.2762 38.7762C38.5262 38.5261 38.6667 38.187 38.6667 37.8334V11.1667C38.6667 10.8131 38.5262 10.4739 38.2762 10.2239C38.0261 9.97385 37.687 9.83337 37.3334 9.83337Z" fill="#1DB5BE"/>
</svg>
