<svg width="48" height="49" viewBox="0 0 48 49" fill="none" xmlns="http://www.w3.org/2000/svg">
<path d="M20 21.8334H10.6667C10.3131 21.8334 9.97395 21.6929 9.7239 21.4429C9.47385 21.1928 9.33337 20.8537 9.33337 20.5V11.1667C9.33337 10.8131 9.47385 10.4739 9.7239 10.2239C9.97395 9.97385 10.3131 9.83337 10.6667 9.83337H20C20.3537 9.83337 20.6928 9.97385 20.9429 10.2239C21.1929 10.4739 21.3334 10.8131 21.3334 11.1667V20.5C21.3334 20.8537 21.1929 21.1928 20.9429 21.4429C20.6928 21.6929 20.3537 21.8334 20 21.8334Z" fill="#7C3AED"/>
<path d="M20 39.1667H10.6667C10.3131 39.1667 9.97395 39.0263 9.7239 38.7762C9.47385 38.5262 9.33337 38.187 9.33337 37.8334V28.5001C9.33337 28.1465 9.47385 27.8073 9.7239 27.5573C9.97395 27.3072 10.3131 27.1667 10.6667 27.1667H20C20.3537 27.1667 20.6928 27.3072 20.9429 27.5573C21.1929 27.8073 21.3334 28.1465 21.3334 28.5001V37.8334C21.3334 38.187 21.1929 38.5262 20.9429 38.7762C20.6928 39.0263 20.3537 39.1667 20 39.1667Z" fill="#7C3AED"/>
<path d="M25.3334 11.1667H38.6667V13.8334H25.3334V11.1667Z" fill="#1DB5BE"/>
<path d="M38.6667 28.5H25.3334V31.1667H38.6667V28.5Z" fill="#1DB5BE"/>
<path d="M38.6667 35.1667H25.3334V37.8334H38.6667V35.1667Z" fill="#C4B5FD"/>
<path d="M38.6667 17.8334H25.3334V20.5H38.6667V17.8334Z" fill="#C4B5FD"/>
</svg>
