<svg width="48" height="49" viewBox="0 0 48 49" fill="none" xmlns="http://www.w3.org/2000/svg">
<g clip-path="url(#clip0_3209_1894)">
<path d="M36 40.5H24C23.6463 40.5 23.3072 40.3595 23.0571 40.1094C22.8071 39.8594 22.6666 39.5202 22.6666 39.1666V36.5C22.6666 36.1463 22.8071 35.8072 23.0571 35.5571C23.3072 35.3071 23.6463 35.1666 24 35.1666H36C36.3536 35.1666 36.6927 35.3071 36.9428 35.5571C37.1928 35.8072 37.3333 36.1463 37.3333 36.5V39.1666C37.3333 39.5202 37.1928 39.8594 36.9428 40.1094C36.6927 40.3595 36.3536 40.5 36 40.5Z" fill="#C4B5FD"/>
<path d="M36 8.5H12C11.6463 8.5 11.3072 8.64047 11.0571 8.89052C10.8071 9.14057 10.6666 9.47971 10.6666 9.83333V12.5C10.6666 12.8536 10.8071 13.1928 11.0571 13.4428C11.3072 13.6929 11.6463 13.8333 12 13.8333H36C36.3536 13.8333 36.6927 13.6929 36.9428 13.4428C37.1928 13.1928 37.3333 12.8536 37.3333 12.5V9.83333C37.3333 9.47971 37.1928 9.14057 36.9428 8.89052C36.6927 8.64047 36.3536 8.5 36 8.5Z" fill="#1DB5BE"/>
<path d="M36 16.5H12C11.6463 16.5 11.3072 16.6405 11.0571 16.8905C10.8071 17.1406 10.6666 17.4797 10.6666 17.8333V31.1667C10.6666 31.5203 10.8071 31.8594 11.0571 32.1095C11.3072 32.3595 11.6463 32.5 12 32.5H36C36.3536 32.5 36.6927 32.3595 36.9428 32.1095C37.1928 31.8594 37.3333 31.5203 37.3333 31.1667V17.8333C37.3333 17.4797 37.1928 17.1406 36.9428 16.8905C36.6927 16.6405 36.3536 16.5 36 16.5Z" fill="#7C3AED"/>
</g>
<defs>
<clipPath id="clip0_3209_1894">
<rect width="32" height="32" fill="white" transform="translate(8 8.5)"/>
</clipPath>
</defs>
</svg>
